<?xml version="1.0" standalone="no"?>
<!DOCTYPE svg PUBLIC "-//W3C//DTD SVG 20010904//EN"
 "http://www.w3.org/TR/2001/REC-SVG-20010904/DTD/svg10.dtd">
<svg version="1.0" xmlns="http://www.w3.org/2000/svg"
 width="512.000000pt" height="512.000000pt" viewBox="0 0 512.000000 512.000000"
 preserveAspectRatio="xMidYMid meet">
<metadata>
Created by potrace 1.11, written by Peter Selinger 2001-2013
</metadata>
<g transform="translate(0.000000,512.000000) scale(0.100000,-0.100000)"
fill="#000000" stroke="none">
<path d="M253 5106 c-102 -32 -176 -97 -222 -196 l-26 -55 0 -2295 0 -2295 26
-56 c37 -79 87 -130 166 -170 l67 -34 2285 0 c1258 0 2298 3 2313 7 49 12 128
61 165 101 19 22 47 65 62 96 l26 56 0 2295 0 2295 -33 67 c-38 77 -92 130
-171 167 l-56 26 -2280 2 c-1864 1 -2288 -1 -2322 -11z"/>
</g>
</svg>
